<?xml version="1.0" encoding="iso-8859-1"?>
<!-- Uploaded to: SVG Repo, www.svgrepo.com, Generator: SVG Repo Mixer Tools -->
<svg fill="#000000" height="20px" width="auto" version="1.1" id="Capa_1" xmlns="http://www.w3.org/2000/svg" xmlns:xlink="http://www.w3.org/1999/xlink" 
	 viewBox="0 0 490 490" xml:space="preserve">
<g>
	<path d="M479.574,91.641H10.425C4.662,91.641,0,96.304,0,102.066v172.377v205.131C0,485.336,4.662,490,10.425,490h469.149
		c5.762,0,10.426-4.664,10.426-10.426V274.443V102.066C490,96.304,485.337,91.641,479.574,91.641z M469.149,469.149H20.851v-184.28
		h117.257v21.034h20.851v-21.034h172.082v21.034h20.851v-21.034h117.257V469.149z M469.149,264.018H351.892v-21.034h-20.851v21.034
		H158.959v-21.034h-20.851v21.034H20.851V112.492h448.298V264.018z"/>
	<path d="M172.021,62.859V20.851h145.958v42.008c0,5.762,4.662,10.425,10.425,10.425h83.404V52.433H338.83V10.425
		C338.83,4.662,334.167,0,328.404,0H161.596c-5.763,0-10.426,4.662-10.426,10.425v42.008H78.191v20.851h83.404
		C167.358,73.284,172.021,68.621,172.021,62.859z"/>
</g>
</svg>