<svg xmlns="http://www.w3.org/2000/svg" width="214" height="36" fill="none"><path fill="url(#a)" d="m14.439 22.03-7.955 5.833c-.954.637-1.697 1.06-2.65 1.06-1.91 0-3.5-1.696-3.5-3.603 0-1.593 1.272-2.76 2.439-3.29L12.106 18l-9.333-4.137c-1.269-.53-2.44-1.696-2.44-3.287 0-1.909 1.698-3.5 3.604-3.5.955 0 1.59.318 2.545 1.06l7.954 5.834-1.057-9.44C13.06 2.302 14.545.5 16.667.5c2.121 0 3.603 1.697 3.288 3.924L18.89 13.97l7.955-5.833c.957-.743 1.7-1.06 2.654-1.06a3.531 3.531 0 0 1 3.5 3.5c0 1.696-1.166 2.757-2.44 3.287L21.228 18l9.334 4.03c1.273.53 2.44 1.697 2.44 3.394 0 1.909-1.698 3.5-3.604 3.5-.849 0-1.591-.424-2.546-1.06l-7.96-5.834 1.06 9.44c.318 2.227-1.166 4.03-3.288 4.03-2.121 0-3.603-1.697-3.288-3.924l1.064-9.546Z"/><path fill="#000" d="M60.159 22.835a1.595 1.595 0 0 0-1.076.411c-1.47 1.261-2.91 1.964-5.048 1.964-3.861 0-6.661-3.254-6.661-7.287v-.058c0-4.008 2.829-7.24 6.661-7.24a7.254 7.254 0 0 1 4.819 1.847 1.775 1.775 0 0 0 2.535-.492c.176-.274.276-.591.29-.918a1.824 1.824 0 0 0-.18-.8 1.794 1.794 0 0 0-.512-.636C59.23 8.25 57.18 7.313 54.064 7.313c-6.095 0-10.397 4.776-10.397 10.61v.058c0 5.896 4.384 10.567 10.268 10.567 3.259 0 5.424-1.053 7.328-2.755a1.74 1.74 0 0 0 .578-1.29 1.73 1.73 0 0 0-.509-1.18 1.675 1.675 0 0 0-1.173-.488Zm13.212-6.537c-3.897-.94-4.819-1.643-4.819-3.225v-.058c0-1.352 1.212-2.434 3.288-2.434 1.588 0 3.087.525 4.66 1.552.278.176.599.268.926.266a1.63 1.63 0 0 0 1.178-.483 1.683 1.683 0 0 0 .493-1.19 1.642 1.642 0 0 0-.198-.824 1.61 1.61 0 0 0-.58-.611 10.986 10.986 0 0 0-6.404-1.906c-4.008 0-6.89 2.43-6.89 5.95v.059c0 3.782 2.42 5.072 6.718 6.129 3.75.878 4.557 1.668 4.557 3.137v.058c0 1.523-1.384 2.58-3.585 2.58a8.665 8.665 0 0 1-5.654-2.11 1.696 1.696 0 0 0-2.434.465 1.763 1.763 0 0 0-.277.883c-.001.27.061.535.181.774.12.24.296.447.511.604a12.418 12.418 0 0 0 7.583 2.58c4.242 0 7.214-2.289 7.214-6.13v-.058c.01-3.4-2.202-4.955-6.468-6.008Zm17.88 0c-3.894-.94-4.815-1.643-4.815-3.225v-.058c0-1.352 1.211-2.434 3.287-2.434 1.585 0 3.087.525 4.661 1.552.278.176.598.268.925.266a1.63 1.63 0 0 0 1.178-.483 1.681 1.681 0 0 0 .493-1.19 1.642 1.642 0 0 0-.198-.824 1.61 1.61 0 0 0-.58-.611 10.985 10.985 0 0 0-6.421-1.906c-4.009 0-6.895 2.43-6.895 5.95v.059c0 3.782 2.424 5.072 6.723 6.129 3.75.878 4.556 1.668 4.556 3.137v.058c0 1.523-1.383 2.58-3.585 2.58a8.665 8.665 0 0 1-5.65-2.11 1.7 1.7 0 0 0-2.436.466c-.17.263-.266.568-.278.882 0 .27.062.534.182.774s.295.446.51.604a12.439 12.439 0 0 0 7.586 2.58c4.242 0 7.21-2.289 7.21-6.13v-.058c.007-3.4-2.183-4.955-6.453-6.008Zm16.356 1.173h-5.425c-.441.02-.858.213-1.163.538a1.762 1.762 0 0 0 0 2.411c.305.325.722.518 1.163.538h5.425c.441-.02.858-.213 1.163-.538a1.762 1.762 0 0 0 0-2.411 1.705 1.705 0 0 0-1.163-.538Zm16.341-9.794h-13.401a1.619 1.619 0 0 0-1.213.46 1.688 1.688 0 0 0 0 2.42 1.638 1.638 0 0 0 1.213.461h4.901v15.54c0 .484.189.947.525 1.289.336.341.792.533 1.267.533.476 0 .932-.192 1.268-.533.336-.342.525-.805.525-1.289v-15.54h4.915c.423-.02.822-.205 1.114-.516.292-.31.455-.724.455-1.155 0-.43-.163-.843-.455-1.154a1.634 1.634 0 0 0-1.114-.516Zm13.929 0h-7.199a1.745 1.745 0 0 0-1.276.525 1.804 1.804 0 0 0-.517 1.297v17.063c.061.434.274.832.6 1.12a1.776 1.776 0 0 0 2.35 0c.326-.288.539-.686.6-1.12v-5.516h4.471l4.901 6.361c.187.293.444.533.747.697.302.164.641.248.984.244a1.652 1.652 0 0 0 1.193-.478 1.724 1.724 0 0 0 .511-1.195 2.122 2.122 0 0 0-.577-1.377l-3.866-4.956c2.711-.849 4.586-2.842 4.586-6.128v-.059a6.266 6.266 0 0 0-1.674-4.427c-1.295-1.29-3.27-2.051-5.823-2.051h-.011Zm3.905 6.74c0 2.081-1.614 3.43-4.152 3.43h-5.192V10.96h5.163c2.625 0 4.181 1.202 4.181 3.403v.055Zm9.662-6.886a1.723 1.723 0 0 0-.684.125 1.76 1.76 0 0 0-.973.97 1.81 1.81 0 0 0-.135.694v17.238c.02.464.216.902.546 1.223.33.321.77.5 1.227.5a1.76 1.76 0 0 0 1.226-.5c.33-.32.526-.759.547-1.223V9.317a1.8 1.8 0 0 0-.511-1.265 1.737 1.737 0 0 0-1.243-.52Zm22.469 15.304a1.583 1.583 0 0 0-1.075.411c-1.474 1.261-2.915 1.964-5.048 1.964-3.865 0-6.665-3.254-6.665-7.287v-.058c0-4.008 2.828-7.24 6.665-7.24a7.248 7.248 0 0 1 4.815 1.847c.308.24.687.368 1.075.364a1.703 1.703 0 0 0 1.246-.502 1.768 1.768 0 0 0 .515-1.257 1.854 1.854 0 0 0-.183-.8 1.818 1.818 0 0 0-.509-.636c-1.761-1.377-3.808-2.314-6.923-2.314-6.117 0-10.398 4.777-10.398 10.61v.059c0 5.895 4.381 10.567 10.268 10.567 3.259 0 5.421-1.053 7.325-2.755a1.747 1.747 0 0 0 .577-1.29 1.727 1.727 0 0 0-.504-1.191 1.676 1.676 0 0 0-1.181-.492Zm14.7-6.13 6.289-6.153a1.776 1.776 0 0 0 .634-1.352 1.66 1.66 0 0 0-.477-1.187 1.614 1.614 0 0 0-1.168-.482 1.84 1.84 0 0 0-1.463.692l-9.573 9.773v-8.68a1.815 1.815 0 0 0-.546-1.222 1.758 1.758 0 0 0-2.453 0c-.331.32-.526.759-.547 1.223v17.238c.021.464.216.902.547 1.223a1.758 1.758 0 0 0 2.453 0c.33-.321.526-.76.546-1.223v-4.249l3.288-3.224 6.489 8.416c.16.259.382.472.645.62.262.148.557.227.857.23a1.727 1.727 0 0 0 1.657-1.071c.09-.219.137-.453.136-.69a1.974 1.974 0 0 0-.488-1.29l-6.826-8.591Zm18.572-.407c-3.894-.94-4.815-1.643-4.815-3.225v-.058c0-1.352 1.212-2.434 3.287-2.434 1.589 0 3.087.525 4.661 1.552.278.176.599.268.925.266a1.632 1.632 0 0 0 1.178-.483 1.694 1.694 0 0 0 .493-1.19 1.637 1.637 0 0 0-.767-1.435 10.985 10.985 0 0 0-6.403-1.906c-4.009 0-6.895 2.43-6.895 5.95v.059c0 3.782 2.424 5.072 6.722 6.129 3.751.878 4.557 1.668 4.557 3.137v.058c0 1.523-1.384 2.58-3.585 2.58a8.662 8.662 0 0 1-5.65-2.11 1.701 1.701 0 0 0-2.436.466 1.75 1.75 0 0 0-.278.882 1.705 1.705 0 0 0 .695 1.377 12.417 12.417 0 0 0 7.583 2.58c4.241 0 7.21-2.288 7.21-6.128v-.059c-.011-3.4-2.201-4.955-6.471-6.008h-.011Z"/><defs><linearGradient id="a" x1=".333" x2="35.25" y1=".5" y2="33.089" gradientUnits="userSpaceOnUse"><stop stop-color="#FF7A18"/><stop offset=".4" stop-color="#AF002D"/><stop offset="1" stop-color="#319197"/></linearGradient></defs></svg>