<svg xmlns="http://www.w3.org/2000/svg" width="210" height="50" fill="none"><g clip-path="url(#a)"><path fill="#DA552F" d="M49.39 24.784c0 13.411-10.946 24.284-24.445 24.284C11.443 49.068.5 38.195.5 24.784.5 11.371 11.444.5 24.945.5c13.5 0 24.444 10.872 24.444 24.284Z"/><path fill="#fff" d="M28.203 24.784h-6.925V17.5h6.925a3.69 3.69 0 0 1 2.593 1.067 3.642 3.642 0 0 1 1.074 2.576 3.623 3.623 0 0 1-1.074 2.575 3.67 3.67 0 0 1-2.593 1.067Zm0-12.142H16.39v24.284h4.889v-7.285h6.925c4.726 0 8.556-3.805 8.556-8.5 0-4.694-3.83-8.499-8.556-8.499Z"/><path fill="#DA552F" d="M75.069 21.816c0-1.336-1.034-2.146-2.376-2.146h-3.6v4.267h3.6c1.343 0 2.376-.81 2.376-2.121Zm-9.384 11.062V16.69h7.487c3.48 0 5.375 2.337 5.375 5.127 0 2.765-1.918 5.102-5.375 5.102h-4.078v5.96h-3.409Zm14.937 0V21.076h3.046v1.55c.84-1.002 2.257-1.836 3.697-1.836v2.956a3.965 3.965 0 0 0-.84-.07c-1.008 0-2.353.57-2.857 1.312v7.89h-3.046Zm16.996-6.056c0-1.788-1.058-3.338-2.978-3.338-1.897 0-2.95 1.55-2.95 3.339 0 1.811 1.053 3.361 2.95 3.361 1.92 0 2.978-1.55 2.978-3.362Zm-9.098 0c0-3.265 2.304-6.032 6.12-6.032 3.84 0 6.145 2.766 6.145 6.032 0 3.267-2.304 6.056-6.145 6.056-3.816 0-6.12-2.79-6.12-6.056Zm22.521 2.05v-4.076c-.504-.764-1.608-1.312-2.617-1.312-1.75 0-2.951 1.359-2.951 3.339 0 2.002 1.201 3.361 2.951 3.361 1.009 0 2.113-.547 2.617-1.311Zm0 4.006v-1.764c-.913 1.144-2.159 1.764-3.576 1.764-2.904 0-5.136-2.192-5.136-6.056 0-3.742 2.184-6.032 5.136-6.032 1.367 0 2.663.573 3.576 1.764V16.69h3.071v16.19h-3.071Zm13.928 0v-1.74c-.791.858-2.183 1.74-4.08 1.74-2.543 0-3.743-1.383-3.743-3.624v-8.178h3.047v6.986c0 1.598.84 2.122 2.136 2.122 1.175 0 2.112-.644 2.64-1.312v-7.796h3.048v11.802h-3.048Zm5.337-6.056c0-3.528 2.591-6.032 6.144-6.032 2.376 0 3.816 1.026 4.584 2.075l-1.993 1.858c-.551-.81-1.391-1.239-2.447-1.239-1.848 0-3.143 1.336-3.143 3.339 0 2.002 1.295 3.361 3.143 3.361 1.056 0 1.896-.477 2.447-1.264l1.993 1.86c-.768 1.05-2.208 2.098-4.584 2.098-3.553 0-6.144-2.503-6.144-6.056Zm13.349 2.885v-5.984h-1.919v-2.647h1.919v-3.148h3.049v3.148h2.35v2.647h-2.35v5.174c0 .739.382 1.287 1.055 1.287.455 0 .889-.167 1.055-.357l.649 2.311c-.455.407-1.272.74-2.544.74-2.136 0-3.264-1.096-3.264-3.17Zm24.923 3.171v-6.986h-7.561v6.986h-3.406V16.69h3.406v6.246h7.561V16.69h3.432v16.188h-3.432Zm14.339 0v-1.74c-.792.858-2.184 1.74-4.08 1.74-2.544 0-3.743-1.383-3.743-3.624v-8.178h3.046v6.986c0 1.598.84 2.122 2.137 2.122 1.175 0 2.112-.644 2.64-1.312v-7.796h3.048v11.802h-3.048Zm13.901 0v-7.247c0-1.598-.838-2.146-2.135-2.146-1.2 0-2.111.668-2.64 1.336v8.058h-3.047V21.076h3.047v1.478c.745-.858 2.184-1.764 4.056-1.764 2.568 0 3.792 1.43 3.792 3.671v8.417h-3.073Zm6.705-3.17v-5.985h-1.918v-2.647h1.918v-3.148h3.049v3.148h2.351v2.647h-2.351v5.174c0 .739.383 1.287 1.055 1.287.456 0 .89-.167 1.057-.357l.647 2.311c-.455.407-1.272.74-2.544.74-2.136 0-3.264-1.096-3.264-3.17Z"/></g><defs><clipPath id="a"><path fill="#fff" d="M.5.5h209v49H.5z"/></clipPath></defs></svg>