<svg xmlns="http://www.w3.org/2000/svg" width="200" height="40" fill="none"><g clip-path="url(#a)"><path fill="#1E1B1D" d="m46.155 24.637-2.295-.2c-1.802-.143-2.5-.857-2.5-2.057 0-1.428 1.105-2.314 3.197-2.314 1.482 0 2.79.344 3.807 1.115l1.366-1.343c-1.28-1.028-3.11-1.513-5.143-1.513-3.05 0-5.26 1.54-5.26 4.113 0 2.313 1.483 3.541 4.272 3.77l2.354.2c1.656.143 2.382.828 2.382 2.056 0 1.657-1.453 2.485-3.807 2.485-1.773 0-3.313-.457-4.447-1.628l-1.395 1.371c1.57 1.485 3.458 2.028 5.87 2.028 3.457 0 5.81-1.573 5.81-4.284 0-2.63-1.714-3.571-4.213-3.8h.002Zm17.888-6.313c-2.293 0-3.738.444-5.004 2.02-.017.022 1.372 1.35 1.372 1.35.843-1.171 1.773-1.599 3.603-1.599 2.615 0 3.661 1.028 3.661 3.084v1.343h-4.299c-3.196 0-4.94 1.6-4.94 4.057a4.009 4.009 0 0 0 1.076 2.857c.9.914 2.063 1.285 4.038 1.285 1.918 0 2.964-.371 4.127-1.514v1.342h2.093v-9.54c0-3.057-1.888-4.684-5.724-4.684l-.003-.001Zm3.634 9.256c0 1.171-.233 1.971-.727 2.428-.9.857-1.976.943-3.196.943-2.266 0-3.284-.771-3.284-2.4 0-1.628 1.047-2.484 3.197-2.484h4.01v1.513Zm10.285-7.426c1.366 0 2.208.4 3.283 1.57 0 0 1.401-1.338 1.39-1.35-1.467-1.542-2.713-2.048-4.672-2.048-3.603 0-6.334 2.399-6.334 7.197 0 4.8 2.73 7.199 6.334 7.199 1.976 0 3.225-.515 4.707-2.085l-1.423-1.343c-1.075 1.171-1.918 1.6-3.284 1.6a3.897 3.897 0 0 1-3.312-1.6c-.668-.914-.93-2-.93-3.77 0-1.771.262-2.857.93-3.77a3.894 3.894 0 0 1 3.313-1.6h-.002Zm17.918-1.678h-2.608l-6.482 6.202.01-12.467h-2.093V32.55H86.8l-.01-5.13 2.538-2.503 4.795 7.633h2.586l-5.932-9.058 5.104-5.015Zm9.666-.346c-2.143 0-3.592.821-4.483 1.752-1.309 1.341-1.643 2.956-1.643 5.53 0 2.6.334 4.214 1.643 5.557.891.93 2.339 1.752 4.483 1.752 2.144 0 3.62-.821 4.511-1.752 1.309-1.341 1.643-2.956 1.643-5.557 0-2.573-.334-4.189-1.643-5.53-.891-.93-2.367-1.752-4.511-1.752Zm1.699 10.759a2.312 2.312 0 0 1-1.699.629 2.246 2.246 0 0 1-1.671-.63c-.752-.739-.835-1.998-.835-3.476 0-1.479.083-2.71.835-3.45a2.245 2.245 0 0 1 1.671-.628c.63-.03 1.245.198 1.699.629.751.739.835 1.97.835 3.449 0 1.478-.084 2.736-.835 3.477Zm14.095-10.595-2.924 8.814-2.952-8.815h-3.815l5.347 14.263h2.84l5.318-14.263h-3.814Zm9.973-.164c-3.759 0-6.321 2.627-6.321 7.281 0 5.777 3.286 7.31 6.711 7.31 2.618 0 4.038-.795 5.514-2.246l-2.2-2.107c-.919.904-1.699 1.341-3.286 1.341-2.033 0-3.175-1.341-3.175-3.176h9.078v-1.587c0-3.915-2.283-6.816-6.321-6.816Zm-2.757 5.967c.006-.528.12-1.05.335-1.533a2.709 2.709 0 0 1 2.423-1.478c1.027 0 1.966.573 2.422 1.478.215.484.328 1.005.334 1.533h-5.514Zm14.418-4.434v-1.37h-3.536v14.263h3.62v-8.595c0-1.807 1.225-2.629 2.339-2.629a2.4 2.4 0 0 1 1.91.839l2.741-2.7c-1.003-.986-2.006-1.341-3.426-1.341a4.95 4.95 0 0 0-3.647 1.533h-.001Zm8.197-2.856v15.735h3.62V21.296h2.673v-2.71h-2.673v-1.56c0-.821.418-1.287 1.279-1.287h1.393v-3.01h-2.061c-2.952 0-4.232 2.053-4.232 4.078h.001Zm21.196 1.321c-2.144 0-3.593.821-4.484 1.752-1.308 1.341-1.643 2.956-1.643 5.53 0 2.6.335 4.214 1.643 5.557.891.93 2.339 1.752 4.484 1.752 2.144 0 3.62-.822 4.511-1.752 1.308-1.342 1.643-2.957 1.643-5.557 0-2.573-.335-4.189-1.643-5.53-.891-.93-2.368-1.752-4.511-1.752Zm1.698 10.758a2.308 2.308 0 0 1-1.698.63 2.246 2.246 0 0 1-1.671-.63c-.752-.739-.835-1.998-.835-3.476 0-1.479.083-2.71.835-3.45a2.245 2.245 0 0 1 1.671-.628c.63-.03 1.245.198 1.698.629.752.739.836 1.97.836 3.449 0 1.478-.084 2.736-.836 3.476Zm21.558-10.594-2.338 8.816-2.98-8.814h-2.645l-2.952 8.814-2.339-8.815h-3.843l4.456 14.263h2.979l3.035-8.952 3.036 8.952h2.979l4.428-14.263h-3.816Zm-32.82 9.966v-15.53h-3.618v15.75c0 2.025 1.253 4.078 4.232 4.078h2.061v-3.011h-1.392c-.919 0-1.28-.438-1.28-1.287h-.003ZM56.169 20.706l1.934-1.901h-3.96V14.18H52.05V28.78c0 2.085 1.22 3.77 3.661 3.77h1.482v-1.77h-1.104c-1.337 0-1.947-.772-1.947-2.058v-8.015h2.027Z"/><path fill="#BBB" fill-rule="evenodd" d="M28.654 25.661h3.52V39.5H.5V25.661h3.52v10.38h24.634V25.66Z" clip-rule="evenodd"/><path fill="#F58025" d="m7.855 24.633 17.284 3.571.727-3.397L8.58 21.235l-.726 3.398Zm2.287-8.136 16.011 7.33 1.492-3.148-16.012-7.33-1.491 3.148Zm4.43-7.723 13.575 11.112 2.26-2.668L16.833 6.106l-2.26 2.668ZM23.334.56 20.5 2.633 31.04 16.566l2.835-2.072L23.334.56ZM7.54 32.58h17.596v-3.46H7.539v3.46Z"/></g><defs><clipPath id="a"><path fill="#fff" d="M.5.5h199v39H.5z"/></clipPath></defs></svg>